<svg xmlns="http://www.w3.org/2000/svg" version="1.1" xmlns:xlink="http://www.w3.org/1999/xlink" xmlns:svgjs="http://svgjs.dev/svgjs" width="1440" height="560" preserveAspectRatio="none" viewBox="0 0 1440 560"><g mask="url(&quot;#SvgjsMask1003&quot;)" fill="none"><path d="M54.51 0.81a17.44 17.44 0 1 0-6.54 34.26z" fill="#d3b714"></path><path d="M885 434.78L906.81 434.78L906.81 459.02L885 459.02z" stroke="rgba(23, 1, 251, 1)"></path><path d="M328.39 474.28 a5.99 5.99 0 1 0 11.98 0 a5.99 5.99 0 1 0 -11.98 0z" stroke="#d3b714"></path><path d="M221.05 482.11 a23.68 23.68 0 1 0 47.36 0 a23.68 23.68 0 1 0 -47.36 0z" stroke="#d3b714"></path><path d="M1017.64 89.55a22.29 22.29 0 1 0 31.55 31.5z" stroke="rgba(23, 1, 251, 1)"></path><path d="M644.86 234.46L659.18 234.46L659.18 248.78L644.86 248.78z" fill="#d3b714"></path><path d="M782.42 395.09 a21.66 21.66 0 1 0 43.32 0 a21.66 21.66 0 1 0 -43.32 0z" stroke="rgba(23, 1, 251, 1)"></path><path d="M192.65 514.85L222.06 514.85L222.06 544.26L192.65 544.26z" fill="rgba(76, 255, 88, 1)"></path><path d="M683.55 12.72a30.41 30.41 0 1 0 38.88 46.77z" fill="rgba(76, 255, 88, 1)"></path><path d="M128.59 102.98L167.71 102.98L167.71 146.78L128.59 146.78z" fill="#d3b714"></path><path d="M749.6 466.79 a18.01 18.01 0 1 0 36.02 0 a18.01 18.01 0 1 0 -36.02 0z" fill="rgba(23, 1, 251, 1)"></path><path d="M258.85 100.58 a27.68 27.68 0 1 0 55.36 0 a27.68 27.68 0 1 0 -55.36 0z" fill="rgba(23, 1, 251, 1)"></path><path d="M938.12 503.25L985.47 503.25L985.47 550.6L938.12 550.6z" fill="rgba(23, 1, 251, 1)"></path><path d="M393.55 267.17L420.83 267.17L420.83 321.94L393.55 321.94z" fill="rgba(23, 1, 251, 1)"></path><path d="M754.44 304.55a17.12 17.12 0 1 0-30.37-15.83z" fill="#d3b714"></path><path d="M1255.24 112.23 a13.33 13.33 0 1 0 26.66 0 a13.33 13.33 0 1 0 -26.66 0z" fill="rgba(76, 255, 88, 1)"></path><path d="M1330.78 250.29L1332.6 250.29L1332.6 252.11L1330.78 252.11z" fill="rgba(76, 255, 88, 1)"></path><path d="M247.6 245.52a0.5 0.5 0 1 0-0.13-0.99z" fill="rgba(76, 255, 88, 1)"></path><path d="M1176.32 41.13L1180.91 41.13L1180.91 45.72L1176.32 45.72z" fill="#d3b714"></path><path d="M1234.11 465.21L1286.37 465.21L1286.37 517.47L1234.11 517.47z" stroke="rgba(23, 1, 251, 1)"></path><path d="M1154.1-0.06a35.15 35.15 0 1 0 56.03 42.46z" stroke="#d3b714"></path><path d="M45.72 141.41L68.99 141.41L68.99 164.68L45.72 164.68z" stroke="#d3b714"></path><path d="M801.67 363.17L847.93 363.17L847.93 409.43L801.67 409.43z" stroke="#d3b714"></path><path d="M777.15 16.14a0.92 0.92 0 1 0 1.75-0.58z" stroke="rgba(23, 1, 251, 1)"></path><path d="M795.52 523.32L840.51 523.32L840.51 523.81L795.52 523.81z" fill="rgba(76, 255, 88, 1)"></path><path d="M1265.06 479.34L1268.01 479.34L1268.01 503.84L1265.06 503.84z" stroke="#d3b714"></path><path d="M1311.63 400.11a42.86 42.86 0 1 0 38 76.84z" stroke="rgba(76, 255, 88, 1)"></path><path d="M252.99 405.98a6.73 6.73 0 1 0 12.18 5.74z" fill="rgba(23, 1, 251, 1)"></path><path d="M139.77 357.18a33.56 33.56 0 1 0 9.76-66.4z" stroke="rgba(76, 255, 88, 1)"></path><path d="M1232.26 259.61a10.04 10.04 0 1 0-6.9-18.85z" stroke="#d3b714"></path><path d="M142.42 174.93L174.08 174.93L174.08 206.59L142.42 206.59z" stroke="#d3b714"></path><path d="M333.97 124.83 a49.53 49.53 0 1 0 99.06 0 a49.53 49.53 0 1 0 -99.06 0z" stroke="rgba(76, 255, 88, 1)"></path><path d="M435.65 518.47a46.36 46.36 0 1 0 19.61-90.62z" fill="rgba(76, 255, 88, 1)"></path></g><defs><mask id="SvgjsMask1003"><rect width="1440" height="560" fill="#ffffff"></rect></mask></defs></svg>