<svg xmlns="http://www.w3.org/2000/svg" version="1.1" xmlns:xlink="http://www.w3.org/1999/xlink" xmlns:svgjs="http://svgjs.dev/svgjs" width="1440" height="560" preserveAspectRatio="none" viewBox="0 0 1440 560"><g mask="url(&quot;#SvgjsMask1409&quot;)" fill="none"><rect width="1440" height="560" x="0" y="0" fill="url(&quot;#SvgjsLinearGradient1410&quot;)"></rect><path d="M 0,216 C 57.6,194.6 172.8,115 288,109 C 403.2,103 460.8,195.4 576,186 C 691.2,176.6 748.8,63.2 864,62 C 979.2,60.8 1036.8,170 1152,180 C 1267.2,190 1382.4,125.6 1440,112L1440 560L0 560z" fill="rgba(0, 215, 56, 1)"></path><path d="M 0,367 C 96,386.6 288,458.4 480,465 C 672,471.6 768,383 960,400 C 1152,417 1344,520 1440,550L1440 560L0 560z" fill="rgba(64, 255, 44, 1)"></path></g><defs><mask id="SvgjsMask1409"><rect width="1440" height="560" fill="#ffffff"></rect></mask><linearGradient x1="15.28%" y1="-39.29%" x2="84.72%" y2="139.29%" gradientUnits="userSpaceOnUse" id="SvgjsLinearGradient1410"><stop stop-color="#0e2a47" offset="0"></stop><stop stop-color="rgba(0, 246, 10, 1)" offset="1"></stop></linearGradient></defs></svg>